<svg id="Layer_1" data-name="Layer 1" xmlns="http://www.w3.org/2000/svg" viewBox="0 0 1280 309.54"><defs><style>.cls-1{fill:#010101;}</style></defs><title>Wordmark - Black</title><path class="cls-1" d="M0,181.45a128.09,128.09,0,1,0,256.17,0V53.37H128.08A128.08,128.08,0,0,0,0,181.45Zm42.69,0a85.39,85.39,0,0,1,85.39-85.39v42.7a42.7,42.7,0,1,0,42.7,42.69V96.06h42.69v85.39a85.39,85.39,0,0,1-170.78,0Z"/><rect class="cls-1" x="170.78" width="85.39" height="42.69"/><path class="cls-1" d="M277.52,78.32H342l32.89,106.13L405.41,78.32h60.2L402.36,248.66Q391.56,277.8,380.3,288q-15.9,14.43-48.46,14.42-13.21,0-40.82-3.6l-4.8-42.63a96.67,96.67,0,0,0,29.4,4.2q10.8,0,17.47-5t11.33-17.74Z"/><path class="cls-1" d="M482.88,78.32h56.89v26q12.76-15.92,25.82-22.74t31.83-6.83q25.37,0,39.7,15.08t14.34,46.61V237.74h-61.4V150.07q0-15-5.55-21.24t-15.62-6.23a22.21,22.21,0,0,0-18,8.41q-6.9,8.42-6.91,30.17v76.56H482.88Z"/><path class="cls-1" d="M743.63,130l-58.4-6.16q3.3-15.3,9.54-24.09t17.94-15.24q8.4-4.65,23.11-7.2a186.63,186.63,0,0,1,31.83-2.55q27.47,0,44.13,3.07t27.78,12.84q7.8,6.75,12.3,19.14a69,69,0,0,1,4.51,23.64v70.41a85.19,85.19,0,0,0,1.42,17.64A79.2,79.2,0,0,0,864,237.74H806.68a57.59,57.59,0,0,1-4.5-9.38,68.05,68.05,0,0,1-2.11-10.13q-12,11.57-23.86,16.51-16.22,6.6-37.69,6.61-28.51,0-43.3-13.21t-14.79-32.58q0-18.17,10.66-29.87t39.33-17.42q34.38-6.9,44.58-9.68a207.73,207.73,0,0,0,21.62-7.28q0-11.27-4.65-15.76T775.6,111q-15,0-22.51,4.81Q747.22,119.6,743.63,130Zm53,32.12q-12.61,4.51-26.27,8-18.61,5-23.57,9.76a15.63,15.63,0,0,0-.07,23q5,4.59,14.78,4.58a38,38,0,0,0,19-4.95q8.79-5,12.46-12.09t3.68-18.54Z"/><path class="cls-1" d="M1008.89,78.32h57.2V228.89l.14,7.05a66.4,66.4,0,0,1-6.38,28.6,60.11,60.11,0,0,1-17,22q-10.58,8.4-26.87,12.16a167.15,167.15,0,0,1-37.31,3.75q-48,0-66-14.41T894.8,249.45q0-3,.3-8.1l59.3,6.75q2.25,8.25,6.9,11.41,6.76,4.65,17,4.65,13.22,0,19.75-7.05t6.53-24.62V208.32q-9,10.67-18,15.46a63.85,63.85,0,0,1-30.47,7.51q-32,0-51.64-27.92-14-19.81-14-52.4,0-37.22,18-56.74T955.6,74.72q18.6,0,30.7,6.3t22.59,20.87Zm-57.5,77.31q0,17.26,7.36,25.59t19.37,8.34a24.68,24.68,0,0,0,19.14-8.64q7.72-8.62,7.72-26t-8.1-26.65q-8.1-9.22-19.81-9.23t-18.7,8.48Q951.4,136,951.39,155.63Z"/><path class="cls-1" d="M1280,173.19H1157.5q1.65,14.72,8,21.92,8.86,10.37,23.12,10.36a34.64,34.64,0,0,0,17.11-4.51q4.95-2.85,10.66-10.05l60.2,5.55q-13.82,24-33.33,34.45t-56,10.44q-31.68,0-49.84-8.94T1107.29,204q-11.94-19.44-11.93-45.71,0-37.38,23.94-60.5t66.13-23.11q34.21,0,54,10.35a69.94,69.94,0,0,1,30.17,30Q1280,134.77,1280,166.29Zm-62.15-29.27q-1.8-17.71-9.53-25.37T1188,110.89a27.68,27.68,0,0,0-23.27,11.56q-5.55,7.22-7,21.47Z"/></svg>