<svg width="257" height="310" viewBox="0 0 257 310" fill="none" xmlns="http://www.w3.org/2000/svg">
<g clip-path="url(#clip0_1027_19)">
<path d="M-4.47081e-06 181.45C-0.14947 198.366 3.05317 215.143 9.42303 230.814C15.7929 246.486 25.2038 260.74 37.1124 272.754C49.0211 284.768 63.1915 294.305 78.8058 300.813C94.42 307.321 111.169 310.672 128.085 310.672C145.001 310.672 161.75 307.321 177.364 300.813C192.978 294.305 207.149 284.768 219.058 272.754C230.966 260.74 240.377 246.486 246.747 230.814C253.117 215.143 256.319 198.366 256.17 181.45V53.37H128.08C94.1111 53.37 61.5334 66.8641 37.5138 90.8838C13.4941 114.903 -4.47081e-06 147.481 -4.47081e-06 181.45ZM42.69 181.45C42.69 158.803 51.6864 137.084 67.7001 121.07C83.7139 105.056 105.433 96.06 128.08 96.06V138.76C119.634 138.76 111.378 141.265 104.356 145.957C97.3339 150.649 91.8609 157.319 88.6294 165.122C85.3978 172.925 84.5528 181.511 86.2012 189.794C87.8496 198.077 91.9174 205.686 97.8901 211.657C103.863 217.628 111.472 221.694 119.756 223.341C128.039 224.987 136.625 224.14 144.428 220.907C152.23 217.673 158.898 212.199 163.589 205.176C168.279 198.152 170.782 189.896 170.78 181.45V96.06H213.47V181.45C213.47 204.097 204.474 225.816 188.46 241.83C172.446 257.844 150.727 266.84 128.08 266.84C105.433 266.84 83.7139 257.844 67.7001 241.83C51.6864 225.816 42.69 204.097 42.69 181.45Z" fill="black"/>
<path d="M256.17 0H170.78V42.69H256.17V0Z" fill="black"/>
</g>
<defs>
<clipPath id="clip0_1027_19">
<rect width="256.17" height="309.54" fill="white"/>
</clipPath>
</defs>
</svg>
