<svg width="1285" height="387" viewBox="0 0 1285 387" fill="none" xmlns="http://www.w3.org/2000/svg">
<path d="M999.091 337.091C998.818 334.788 997.712 333 995.773 331.727C993.833 330.455 991.455 329.818 988.636 329.818C986.576 329.818 984.773 330.152 983.227 330.818C981.697 331.485 980.5 332.402 979.636 333.568C978.788 334.735 978.364 336.061 978.364 337.545C978.364 338.788 978.659 339.856 979.25 340.75C979.856 341.629 980.629 342.364 981.568 342.955C982.508 343.53 983.492 344.008 984.523 344.386C985.553 344.75 986.5 345.045 987.364 345.273L992.091 346.545C993.303 346.864 994.652 347.303 996.136 347.864C997.636 348.424 999.068 349.189 1000.43 350.159C1001.81 351.114 1002.95 352.341 1003.84 353.841C1004.73 355.341 1005.18 357.182 1005.18 359.364C1005.18 361.879 1004.52 364.152 1003.2 366.182C1001.9 368.212 999.992 369.826 997.477 371.023C994.977 372.22 991.939 372.818 988.364 372.818C985.03 372.818 982.144 372.28 979.705 371.205C977.28 370.129 975.371 368.629 973.977 366.705C972.598 364.78 971.818 362.545 971.636 360H977.455C977.606 361.758 978.197 363.212 979.227 364.364C980.273 365.5 981.591 366.348 983.182 366.909C984.788 367.455 986.515 367.727 988.364 367.727C990.515 367.727 992.447 367.379 994.159 366.682C995.871 365.97 997.227 364.985 998.227 363.727C999.227 362.455 999.727 360.97 999.727 359.273C999.727 357.727 999.295 356.47 998.432 355.5C997.568 354.53 996.432 353.742 995.023 353.136C993.614 352.53 992.091 352 990.455 351.545L984.727 349.909C981.091 348.864 978.212 347.371 976.091 345.432C973.97 343.492 972.909 340.955 972.909 337.818C972.909 335.212 973.614 332.939 975.023 331C976.447 329.045 978.356 327.53 980.75 326.455C983.159 325.364 985.848 324.818 988.818 324.818C991.818 324.818 994.485 325.356 996.818 326.432C999.152 327.492 1001 328.947 1002.36 330.795C1003.74 332.644 1004.47 334.742 1004.55 337.091H999.091ZM1024.7 330.455V325.455H1059.61V330.455H1044.98V372H1039.34V330.455H1024.7ZM1111.66 325.455H1117.29V356.273C1117.29 359.455 1116.54 362.295 1115.04 364.795C1113.56 367.28 1111.46 369.242 1108.75 370.682C1106.04 372.106 1102.85 372.818 1099.2 372.818C1095.55 372.818 1092.37 372.106 1089.66 370.682C1086.94 369.242 1084.84 367.28 1083.34 364.795C1081.85 362.295 1081.11 359.455 1081.11 356.273V325.455H1086.75V355.818C1086.75 358.091 1087.25 360.114 1088.25 361.886C1089.25 363.644 1090.67 365.03 1092.52 366.045C1094.38 367.045 1096.61 367.545 1099.2 367.545C1101.79 367.545 1104.02 367.045 1105.88 366.045C1107.75 365.03 1109.17 363.644 1110.16 361.886C1111.16 360.114 1111.66 358.091 1111.66 355.818V325.455ZM1155.71 372H1141.35V325.455H1156.35C1160.86 325.455 1164.73 326.386 1167.94 328.25C1171.15 330.098 1173.61 332.758 1175.33 336.227C1177.04 339.682 1177.89 343.818 1177.89 348.636C1177.89 353.485 1177.03 357.659 1175.3 361.159C1173.58 364.644 1171.06 367.326 1167.76 369.205C1164.45 371.068 1160.44 372 1155.71 372ZM1146.99 367H1155.35C1159.2 367 1162.39 366.258 1164.92 364.773C1167.45 363.288 1169.33 361.174 1170.58 358.432C1171.82 355.689 1172.44 352.424 1172.44 348.636C1172.44 344.879 1171.83 341.644 1170.6 338.932C1169.37 336.205 1167.54 334.114 1165.1 332.659C1162.66 331.189 1159.62 330.455 1155.99 330.455H1146.99V367ZM1205.79 325.455V372H1200.15V325.455H1205.79ZM1269.16 348.727C1269.16 353.636 1268.27 357.879 1266.5 361.455C1264.73 365.03 1262.3 367.788 1259.2 369.727C1256.11 371.667 1252.58 372.636 1248.61 372.636C1244.64 372.636 1241.11 371.667 1238.02 369.727C1234.93 367.788 1232.5 365.03 1230.73 361.455C1228.95 357.879 1228.07 353.636 1228.07 348.727C1228.07 343.818 1228.95 339.576 1230.73 336C1232.5 332.424 1234.93 329.667 1238.02 327.727C1241.11 325.788 1244.64 324.818 1248.61 324.818C1252.58 324.818 1256.11 325.788 1259.2 327.727C1262.3 329.667 1264.73 332.424 1266.5 336C1268.27 339.576 1269.16 343.818 1269.16 348.727ZM1263.7 348.727C1263.7 344.697 1263.03 341.295 1261.68 338.523C1260.35 335.75 1258.54 333.652 1256.25 332.227C1253.98 330.803 1251.43 330.091 1248.61 330.091C1245.8 330.091 1243.24 330.803 1240.95 332.227C1238.68 333.652 1236.87 335.75 1235.52 338.523C1234.19 341.295 1233.52 344.697 1233.52 348.727C1233.52 352.758 1234.19 356.159 1235.52 358.932C1236.87 361.705 1238.68 363.803 1240.95 365.227C1243.24 366.652 1245.8 367.364 1248.61 367.364C1251.43 367.364 1253.98 366.652 1256.25 365.227C1258.54 363.803 1260.35 361.705 1261.68 358.932C1263.03 356.159 1263.7 352.758 1263.7 348.727Z" fill="white"/>
<g clip-path="url(#clip0_1130_205)">
<path d="M-4.47081e-06 181.45C-0.14947 198.366 3.05317 215.143 9.42303 230.814C15.7929 246.486 25.2038 260.74 37.1124 272.754C49.0211 284.768 63.1915 294.305 78.8058 300.813C94.42 307.321 111.169 310.672 128.085 310.672C145.001 310.672 161.75 307.321 177.364 300.813C192.978 294.305 207.149 284.768 219.058 272.754C230.966 260.74 240.377 246.486 246.747 230.814C253.117 215.143 256.319 198.366 256.17 181.45V53.37H128.08C94.1111 53.37 61.5334 66.8641 37.5138 90.8838C13.4941 114.903 -4.47081e-06 147.481 -4.47081e-06 181.45ZM42.69 181.45C42.69 158.803 51.6864 137.084 67.7001 121.07C83.7139 105.056 105.433 96.06 128.08 96.06V138.76C119.634 138.76 111.378 141.265 104.356 145.957C97.3339 150.649 91.8609 157.319 88.6294 165.122C85.3978 172.925 84.5528 181.511 86.2012 189.794C87.8496 198.077 91.9174 205.686 97.8901 211.657C103.863 217.628 111.472 221.694 119.756 223.341C128.039 224.987 136.625 224.14 144.428 220.907C152.23 217.673 158.898 212.199 163.589 205.176C168.279 198.152 170.782 189.896 170.78 181.45V96.06H213.47V181.45C213.47 204.097 204.474 225.816 188.46 241.83C172.446 257.844 150.727 266.84 128.08 266.84C105.433 266.84 83.7139 257.844 67.7001 241.83C51.6864 225.816 42.69 204.097 42.69 181.45Z" fill="white"/>
<path d="M256.17 0H170.78V42.69H256.17V0Z" fill="white"/>
<path d="M277.52 78.3199H342L374.89 184.45L405.41 78.3199H465.61L402.36 248.66C395.16 268.087 387.807 281.2 380.3 288C369.7 297.62 353.547 302.427 331.84 302.42C323.033 302.42 309.427 301.22 291.02 298.82L286.22 256.19C295.745 259.096 305.662 260.513 315.62 260.39C322.82 260.39 328.643 258.723 333.09 255.39C337.537 252.057 341.313 246.143 344.42 237.65L277.52 78.3199Z" fill="white"/>
<path d="M482.88 78.32H539.77V104.32C548.277 93.7067 556.883 86.1267 565.59 81.58C574.297 77.0333 584.907 74.7567 597.42 74.75C614.333 74.75 627.567 79.7767 637.12 89.83C646.673 99.8833 651.453 115.42 651.46 136.44V237.74H590.06V150.07C590.06 140.07 588.21 132.99 584.51 128.83C580.81 124.67 575.603 122.593 568.89 122.6C565.443 122.508 562.021 123.22 558.897 124.68C555.773 126.14 553.031 128.307 550.89 131.01C546.29 136.623 543.987 146.68 543.98 161.18V237.74H482.88V78.32Z" fill="white"/>
<path d="M743.63 130L685.23 123.84C687.43 113.64 690.61 105.61 694.77 99.75C698.93 93.89 704.91 88.81 712.71 84.51C718.31 81.41 726.013 79.01 735.82 77.31C746.338 75.5522 756.987 74.6991 767.65 74.76C785.963 74.76 800.673 75.7833 811.78 77.83C822.887 79.8767 832.147 84.1567 839.56 90.67C844.76 95.17 848.86 101.55 851.86 109.81C854.736 117.365 856.263 125.367 856.37 133.45V203.86C856.23 209.773 856.705 215.685 857.79 221.5C859.258 227.125 861.34 232.571 864 237.74H806.68C804.9 234.756 803.394 231.616 802.18 228.36C801.221 225.042 800.515 221.655 800.07 218.23C792.07 225.943 784.117 231.447 776.21 234.74C765.397 239.14 752.833 241.343 738.52 241.35C719.513 241.35 705.08 236.947 695.22 228.14C685.36 219.333 680.43 208.473 680.43 195.56C680.43 183.447 683.983 173.49 691.09 165.69C698.197 157.89 711.307 152.083 730.42 148.27C753.34 143.67 768.2 140.443 775 138.59C782.335 136.561 789.552 134.131 796.62 131.31C796.62 123.797 795.07 118.543 791.97 115.55C788.87 112.557 783.413 111.04 775.6 111C765.6 111 758.097 112.603 753.09 115.81C749.177 118.337 746.023 123.067 743.63 130ZM796.63 162.12C788.223 165.127 779.467 167.793 770.36 170.12C757.953 173.453 750.097 176.707 746.79 179.88C745.195 181.339 743.92 183.113 743.046 185.09C742.172 187.066 741.717 189.203 741.71 191.365C741.704 193.526 742.145 195.666 743.008 197.648C743.87 199.63 745.134 201.411 746.72 202.88C750.053 205.94 754.98 207.467 761.5 207.46C768.158 207.503 774.71 205.796 780.5 202.51C786.36 199.177 790.513 195.147 792.96 190.42C795.407 185.693 796.633 179.513 796.64 171.88L796.63 162.12Z" fill="white"/>
<path d="M1008.89 78.32H1066.09V228.89L1066.23 235.94C1066.26 245.829 1064.08 255.601 1059.85 264.54C1055.98 273.101 1050.16 280.636 1042.85 286.54C1035.8 292.14 1026.84 296.193 1015.98 298.7C1003.72 301.345 991.208 302.603 978.67 302.45C946.67 302.45 924.67 297.647 912.67 288.04C900.67 278.433 894.713 265.57 894.8 249.45C894.8 247.45 894.9 244.75 895.1 241.35L954.4 248.1C955.9 253.6 958.2 257.403 961.3 259.51C965.807 262.61 971.473 264.16 978.3 264.16C987.113 264.16 993.697 261.81 998.05 257.11C1002.4 252.41 1004.58 244.203 1004.58 232.49V208.32C998.58 215.433 992.58 220.587 986.58 223.78C977.206 228.779 966.733 231.36 956.11 231.29C934.777 231.29 917.563 221.983 904.47 203.37C895.137 190.163 890.47 172.697 890.47 150.97C890.47 126.157 896.47 107.243 908.47 94.23C920.47 81.2166 936.18 74.7133 955.6 74.72C968 74.72 978.233 76.82 986.3 81.02C994.367 85.22 1001.9 92.1766 1008.89 101.89V78.32ZM951.39 155.63C951.39 167.137 953.843 175.667 958.75 181.22C963.657 186.773 970.113 189.553 978.12 189.56C981.749 189.616 985.346 188.871 988.655 187.377C991.963 185.884 994.901 183.679 997.26 180.92C1002.41 175.173 1004.98 166.507 1004.98 154.92C1004.98 143.333 1002.28 134.45 996.88 128.27C991.48 122.123 984.877 119.047 977.07 119.04C969.263 119.033 963.03 121.86 958.37 127.52C953.723 133.173 951.397 142.543 951.39 155.63Z" fill="white"/>
<path d="M1280 173.19H1157.5C1158.6 183.003 1161.27 190.31 1165.5 195.11C1171.41 202.023 1179.11 205.477 1188.62 205.47C1194.62 205.473 1200.51 203.919 1205.73 200.96C1209.03 199.06 1212.58 195.71 1216.39 190.91L1276.59 196.46C1267.38 212.46 1256.27 223.943 1243.26 230.91C1230.25 237.877 1211.59 241.357 1187.26 241.35C1166.14 241.35 1149.53 238.37 1137.42 232.41C1125.31 226.45 1115.27 216.98 1107.29 204C1099.33 191.04 1095.35 175.803 1095.36 158.29C1095.36 133.37 1103.34 113.203 1119.3 97.7899C1135.26 82.3766 1157.3 74.6733 1185.43 74.6799C1208.24 74.6799 1226.24 78.1299 1239.43 85.0299C1252.36 91.6542 1262.9 102.139 1269.6 115.03C1276.53 128.19 1280 145.277 1280 166.29V173.19ZM1217.85 143.92C1216.65 132.113 1213.47 123.657 1208.32 118.55C1203.17 113.443 1196.39 110.89 1188 110.89C1183.47 110.765 1178.98 111.754 1174.92 113.77C1170.87 115.785 1167.37 118.766 1164.73 122.45C1161.03 127.263 1158.7 134.42 1157.73 143.92H1217.85Z" fill="white"/>
</g>
<defs>
<clipPath id="clip0_1130_205">
<rect width="1280" height="309.54" fill="white"/>
</clipPath>
</defs>
</svg>
