<svg width="1285" height="387" viewBox="0 0 1285 387" fill="none" xmlns="http://www.w3.org/2000/svg">
<path d="M650.091 330.455V325.455H685V330.455H670.364V372H664.727V330.455H650.091ZM706.499 372V325.455H734.59V330.455H712.135V346.182H733.135V351.182H712.135V367H734.953V372H706.499ZM795.003 340H789.367C789.034 338.379 788.45 336.955 787.617 335.727C786.799 334.5 785.799 333.47 784.617 332.636C783.45 331.788 782.155 331.152 780.731 330.727C779.306 330.303 777.822 330.091 776.276 330.091C773.458 330.091 770.905 330.803 768.617 332.227C766.344 333.652 764.534 335.75 763.185 338.523C761.852 341.295 761.185 344.697 761.185 348.727C761.185 352.758 761.852 356.159 763.185 358.932C764.534 361.705 766.344 363.803 768.617 365.227C770.905 366.652 773.458 367.364 776.276 367.364C777.822 367.364 779.306 367.152 780.731 366.727C782.155 366.303 783.45 365.674 784.617 364.841C785.799 363.992 786.799 362.955 787.617 361.727C788.45 360.485 789.034 359.061 789.367 357.455H795.003C794.579 359.833 793.806 361.962 792.685 363.841C791.564 365.72 790.17 367.318 788.503 368.636C786.837 369.939 784.966 370.932 782.89 371.614C780.829 372.295 778.625 372.636 776.276 372.636C772.306 372.636 768.776 371.667 765.685 369.727C762.594 367.788 760.162 365.03 758.39 361.455C756.617 357.879 755.731 353.636 755.731 348.727C755.731 343.818 756.617 339.576 758.39 336C760.162 332.424 762.594 329.667 765.685 327.727C768.776 325.788 772.306 324.818 776.276 324.818C778.625 324.818 780.829 325.159 782.89 325.841C784.966 326.523 786.837 327.523 788.503 328.841C790.17 330.144 791.564 331.735 792.685 333.614C793.806 335.477 794.579 337.606 795.003 340ZM816.911 372V325.455H822.548V346.182H847.366V325.455H853.002V372H847.366V351.182H822.548V372H816.911ZM913.995 325.455V372H908.541L883.177 335.455H882.723V372H877.086V325.455H882.541L907.995 362.091H908.45V325.455H913.995ZM977.347 348.727C977.347 353.636 976.46 357.879 974.688 361.455C972.915 365.03 970.483 367.788 967.392 369.727C964.301 371.667 960.771 372.636 956.801 372.636C952.831 372.636 949.301 371.667 946.21 369.727C943.119 367.788 940.688 365.03 938.915 361.455C937.142 357.879 936.256 353.636 936.256 348.727C936.256 343.818 937.142 339.576 938.915 336C940.688 332.424 943.119 329.667 946.21 327.727C949.301 325.788 952.831 324.818 956.801 324.818C960.771 324.818 964.301 325.788 967.392 327.727C970.483 329.667 972.915 332.424 974.688 336C976.46 339.576 977.347 343.818 977.347 348.727ZM971.892 348.727C971.892 344.697 971.218 341.295 969.869 338.523C968.536 335.75 966.725 333.652 964.438 332.227C962.165 330.803 959.619 330.091 956.801 330.091C953.983 330.091 951.43 330.803 949.142 332.227C946.869 333.652 945.059 335.75 943.71 338.523C942.377 341.295 941.71 344.697 941.71 348.727C941.71 352.758 942.377 356.159 943.71 358.932C945.059 361.705 946.869 363.803 949.142 365.227C951.43 366.652 953.983 367.364 956.801 367.364C959.619 367.364 962.165 366.652 964.438 365.227C966.725 363.803 968.536 361.705 969.869 358.932C971.218 356.159 971.892 352.758 971.892 348.727ZM999.624 372V325.455H1005.26V367H1026.9V372H999.624ZM1085.88 348.727C1085.88 353.636 1085 357.879 1083.23 361.455C1081.45 365.03 1079.02 367.788 1075.93 369.727C1072.84 371.667 1069.31 372.636 1065.34 372.636C1061.37 372.636 1057.84 371.667 1054.75 369.727C1051.66 367.788 1049.23 365.03 1047.45 361.455C1045.68 357.879 1044.79 353.636 1044.79 348.727C1044.79 343.818 1045.68 339.576 1047.45 336C1049.23 332.424 1051.66 329.667 1054.75 327.727C1057.84 325.788 1061.37 324.818 1065.34 324.818C1069.31 324.818 1072.84 325.788 1075.93 327.727C1079.02 329.667 1081.45 332.424 1083.23 336C1085 339.576 1085.88 343.818 1085.88 348.727ZM1080.43 348.727C1080.43 344.697 1079.76 341.295 1078.41 338.523C1077.07 335.75 1075.26 333.652 1072.98 332.227C1070.7 330.803 1068.16 330.091 1065.34 330.091C1062.52 330.091 1059.97 330.803 1057.68 332.227C1055.41 333.652 1053.6 335.75 1052.25 338.523C1050.91 341.295 1050.25 344.697 1050.25 348.727C1050.25 352.758 1050.91 356.159 1052.25 358.932C1053.6 361.705 1055.41 363.803 1057.68 365.227C1059.97 366.652 1062.52 367.364 1065.34 367.364C1068.16 367.364 1070.7 366.652 1072.98 365.227C1075.26 363.803 1077.07 361.705 1078.41 358.932C1079.76 356.159 1080.43 352.758 1080.43 348.727ZM1139.98 340C1139.48 338.47 1138.82 337.098 1138 335.886C1137.2 334.659 1136.24 333.614 1135.12 332.75C1134.01 331.886 1132.75 331.227 1131.34 330.773C1129.93 330.318 1128.39 330.091 1126.71 330.091C1123.95 330.091 1121.44 330.803 1119.18 332.227C1116.93 333.652 1115.13 335.75 1113.8 338.523C1112.46 341.295 1111.8 344.697 1111.8 348.727C1111.8 352.758 1112.47 356.159 1113.82 358.932C1115.17 361.705 1116.99 363.803 1119.3 365.227C1121.6 366.652 1124.19 367.364 1127.07 367.364C1129.74 367.364 1132.09 366.795 1134.12 365.659C1136.16 364.508 1137.75 362.886 1138.89 360.795C1140.04 358.689 1140.62 356.212 1140.62 353.364L1142.34 353.727H1128.34V348.727H1146.07V353.727C1146.07 357.561 1145.25 360.894 1143.62 363.727C1141.99 366.561 1139.75 368.758 1136.89 370.318C1134.04 371.864 1130.77 372.636 1127.07 372.636C1122.95 372.636 1119.33 371.667 1116.21 369.727C1113.1 367.788 1110.68 365.03 1108.93 361.455C1107.21 357.879 1106.34 353.636 1106.34 348.727C1106.34 345.045 1106.84 341.735 1107.82 338.795C1108.82 335.841 1110.23 333.326 1112.05 331.25C1113.87 329.174 1116.02 327.583 1118.5 326.477C1120.99 325.371 1123.72 324.818 1126.71 324.818C1129.16 324.818 1131.45 325.189 1133.57 325.932C1135.71 326.659 1137.61 327.697 1139.27 329.045C1140.96 330.379 1142.36 331.977 1143.48 333.841C1144.6 335.689 1145.37 337.742 1145.8 340H1139.98ZM1174.16 325.455V372H1168.52V325.455H1174.16ZM1198.26 372V325.455H1226.35V330.455H1203.9V346.182H1224.9V351.182H1203.9V367H1226.72V372H1198.26ZM1274.77 337.091C1274.49 334.788 1273.39 333 1271.45 331.727C1269.51 330.455 1267.13 329.818 1264.31 329.818C1262.25 329.818 1260.45 330.152 1258.9 330.818C1257.37 331.485 1256.17 332.402 1255.31 333.568C1254.46 334.735 1254.04 336.061 1254.04 337.545C1254.04 338.788 1254.33 339.856 1254.92 340.75C1255.53 341.629 1256.3 342.364 1257.24 342.955C1258.18 343.53 1259.17 344.008 1260.2 344.386C1261.23 344.75 1262.17 345.045 1263.04 345.273L1267.77 346.545C1268.98 346.864 1270.33 347.303 1271.81 347.864C1273.31 348.424 1274.74 349.189 1276.11 350.159C1277.49 351.114 1278.62 352.341 1279.52 353.841C1280.41 355.341 1280.86 357.182 1280.86 359.364C1280.86 361.879 1280.2 364.152 1278.88 366.182C1277.58 368.212 1275.67 369.826 1273.15 371.023C1270.65 372.22 1267.61 372.818 1264.04 372.818C1260.71 372.818 1257.82 372.28 1255.38 371.205C1252.96 370.129 1251.05 368.629 1249.65 366.705C1248.27 364.78 1247.49 362.545 1247.31 360H1253.13C1253.28 361.758 1253.87 363.212 1254.9 364.364C1255.95 365.5 1257.27 366.348 1258.86 366.909C1260.46 367.455 1262.19 367.727 1264.04 367.727C1266.19 367.727 1268.12 367.379 1269.83 366.682C1271.55 365.97 1272.9 364.985 1273.9 363.727C1274.9 362.455 1275.4 360.97 1275.4 359.273C1275.4 357.727 1274.97 356.47 1274.11 355.5C1273.24 354.53 1272.11 353.742 1270.7 353.136C1269.29 352.53 1267.77 352 1266.13 351.545L1260.4 349.909C1256.77 348.864 1253.89 347.371 1251.77 345.432C1249.64 343.492 1248.58 340.955 1248.58 337.818C1248.58 335.212 1249.29 332.939 1250.7 331C1252.12 329.045 1254.03 327.53 1256.42 326.455C1258.83 325.364 1261.52 324.818 1264.49 324.818C1267.49 324.818 1270.16 325.356 1272.49 326.432C1274.83 327.492 1276.67 328.947 1278.04 330.795C1279.42 332.644 1280.14 334.742 1280.22 337.091H1274.77Z" fill="white"/>
<g clip-path="url(#clip0_1081_98)">
<path d="M-4.47081e-06 181.45C-0.14947 198.366 3.05317 215.143 9.42303 230.815C15.7929 246.486 25.2038 260.74 37.1124 272.754C49.0211 284.768 63.1915 294.305 78.8058 300.813C94.42 307.321 111.169 310.672 128.085 310.672C145.001 310.672 161.75 307.321 177.364 300.813C192.978 294.305 207.149 284.768 219.058 272.754C230.966 260.74 240.377 246.486 246.747 230.815C253.117 215.143 256.319 198.366 256.17 181.45V53.3701H128.08C94.1111 53.3701 61.5334 66.8642 37.5138 90.8839C13.4941 114.904 -4.47081e-06 147.481 -4.47081e-06 181.45ZM42.69 181.45C42.69 158.803 51.6864 137.084 67.7001 121.07C83.7139 105.057 105.433 96.0601 128.08 96.0601V138.76C119.634 138.76 111.378 141.265 104.356 145.957C97.3339 150.649 91.8609 157.319 88.6294 165.122C85.3978 172.925 84.5528 181.511 86.2012 189.794C87.8496 198.077 91.9174 205.686 97.8901 211.657C103.863 217.628 111.472 221.694 119.756 223.341C128.039 224.987 136.625 224.14 144.428 220.907C152.23 217.674 158.898 212.199 163.589 205.176C168.279 198.152 170.782 189.896 170.78 181.45V96.0601H213.47V181.45C213.47 204.097 204.474 225.816 188.46 241.83C172.446 257.844 150.727 266.84 128.08 266.84C105.433 266.84 83.7139 257.844 67.7001 241.83C51.6864 225.816 42.69 204.097 42.69 181.45Z" fill="white"/>
<path d="M256.17 0H170.78V42.69H256.17V0Z" fill="white"/>
<path d="M277.52 78.3201H342L374.89 184.45L405.41 78.3201H465.61L402.36 248.66C395.16 268.087 387.807 281.2 380.3 288C369.7 297.62 353.547 302.427 331.84 302.42C323.033 302.42 309.427 301.22 291.02 298.82L286.22 256.19C295.745 259.096 305.662 260.513 315.62 260.39C322.82 260.39 328.643 258.723 333.09 255.39C337.537 252.057 341.313 246.143 344.42 237.65L277.52 78.3201Z" fill="white"/>
<path d="M482.88 78.32H539.77V104.32C548.277 93.7067 556.883 86.1267 565.59 81.58C574.297 77.0333 584.907 74.7567 597.42 74.75C614.333 74.75 627.567 79.7767 637.12 89.83C646.673 99.8833 651.453 115.42 651.46 136.44V237.74H590.06V150.07C590.06 140.07 588.21 132.99 584.51 128.83C580.81 124.67 575.603 122.593 568.89 122.6C565.443 122.508 562.021 123.22 558.897 124.68C555.773 126.14 553.031 128.307 550.89 131.01C546.29 136.623 543.987 146.68 543.98 161.18V237.74H482.88V78.32Z" fill="white"/>
<path d="M743.63 130L685.23 123.84C687.43 113.64 690.61 105.61 694.77 99.7499C698.93 93.8899 704.91 88.8099 712.71 84.5099C718.31 81.4099 726.013 79.0099 735.82 77.3099C746.338 75.5521 756.987 74.699 767.65 74.7599C785.963 74.7599 800.673 75.7832 811.78 77.8299C822.887 79.8765 832.147 84.1565 839.56 90.6699C844.76 95.1699 848.86 101.55 851.86 109.81C854.736 117.365 856.263 125.367 856.37 133.45V203.86C856.23 209.773 856.705 215.685 857.79 221.5C859.258 227.125 861.34 232.571 864 237.74H806.68C804.9 234.755 803.394 231.616 802.18 228.36C801.221 225.042 800.515 221.655 800.07 218.23C792.07 225.943 784.117 231.447 776.21 234.74C765.397 239.14 752.833 241.343 738.52 241.35C719.513 241.35 705.08 236.947 695.22 228.14C685.36 219.333 680.43 208.473 680.43 195.56C680.43 183.447 683.983 173.49 691.09 165.69C698.197 157.89 711.307 152.083 730.42 148.27C753.34 143.67 768.2 140.443 775 138.59C782.335 136.561 789.552 134.131 796.62 131.31C796.62 123.797 795.07 118.543 791.97 115.55C788.87 112.557 783.413 111.04 775.6 111C765.6 111 758.097 112.603 753.09 115.81C749.177 118.337 746.023 123.067 743.63 130ZM796.63 162.12C788.223 165.127 779.467 167.793 770.36 170.12C757.953 173.453 750.097 176.707 746.79 179.88C745.195 181.339 743.92 183.113 743.046 185.09C742.172 187.066 741.717 189.203 741.71 191.365C741.704 193.526 742.145 195.665 743.008 197.647C743.87 199.63 745.134 201.411 746.72 202.88C750.053 205.94 754.98 207.467 761.5 207.46C768.158 207.503 774.71 205.796 780.5 202.51C786.36 199.177 790.513 195.147 792.96 190.42C795.407 185.693 796.633 179.513 796.64 171.88L796.63 162.12Z" fill="white"/>
<path d="M1008.89 78.32H1066.09V228.89L1066.23 235.94C1066.26 245.829 1064.08 255.601 1059.85 264.54C1055.98 273.101 1050.16 280.636 1042.85 286.54C1035.8 292.14 1026.84 296.193 1015.98 298.7C1003.72 301.345 991.208 302.603 978.67 302.45C946.67 302.45 924.67 297.647 912.67 288.04C900.67 278.433 894.713 265.57 894.8 249.45C894.8 247.45 894.9 244.75 895.1 241.35L954.4 248.1C955.9 253.6 958.2 257.403 961.3 259.51C965.807 262.61 971.473 264.16 978.3 264.16C987.113 264.16 993.697 261.81 998.05 257.11C1002.4 252.41 1004.58 244.203 1004.58 232.49V208.32C998.58 215.433 992.58 220.587 986.58 223.78C977.206 228.779 966.733 231.36 956.11 231.29C934.777 231.29 917.563 221.983 904.47 203.37C895.137 190.163 890.47 172.697 890.47 150.97C890.47 126.157 896.47 107.243 908.47 94.23C920.47 81.2166 936.18 74.7133 955.6 74.72C968 74.72 978.233 76.82 986.3 81.02C994.367 85.22 1001.9 92.1766 1008.89 101.89V78.32ZM951.39 155.63C951.39 167.137 953.843 175.667 958.75 181.22C963.657 186.773 970.113 189.553 978.12 189.56C981.749 189.616 985.346 188.871 988.655 187.377C991.963 185.884 994.901 183.679 997.26 180.92C1002.41 175.173 1004.98 166.507 1004.98 154.92C1004.98 143.333 1002.28 134.45 996.88 128.27C991.48 122.123 984.877 119.047 977.07 119.04C969.263 119.033 963.03 121.86 958.37 127.52C953.723 133.173 951.397 142.543 951.39 155.63Z" fill="white"/>
<path d="M1280 173.19H1157.5C1158.6 183.003 1161.27 190.31 1165.5 195.11C1171.41 202.023 1179.11 205.477 1188.62 205.47C1194.62 205.473 1200.51 203.919 1205.73 200.96C1209.03 199.06 1212.58 195.71 1216.39 190.91L1276.59 196.46C1267.38 212.46 1256.27 223.943 1243.26 230.91C1230.25 237.877 1211.59 241.357 1187.26 241.35C1166.14 241.35 1149.53 238.37 1137.42 232.41C1125.31 226.45 1115.27 216.98 1107.29 204C1099.33 191.04 1095.35 175.803 1095.36 158.29C1095.36 133.37 1103.34 113.203 1119.3 97.7899C1135.26 82.3766 1157.3 74.6733 1185.43 74.6799C1208.24 74.6799 1226.24 78.1299 1239.43 85.0299C1252.36 91.6542 1262.9 102.139 1269.6 115.03C1276.53 128.19 1280 145.277 1280 166.29V173.19ZM1217.85 143.92C1216.65 132.113 1213.47 123.657 1208.32 118.55C1203.17 113.443 1196.39 110.89 1188 110.89C1183.47 110.765 1178.98 111.754 1174.92 113.77C1170.87 115.785 1167.37 118.766 1164.73 122.45C1161.03 127.263 1158.7 134.42 1157.73 143.92H1217.85Z" fill="white"/>
</g>
<defs>
<clipPath id="clip0_1081_98">
<rect width="1280" height="309.54" fill="white"/>
</clipPath>
</defs>
</svg>
